<?xml version="1.0" encoding="UTF-8" standalone="no"?>
<svg
   width="1024"
   height="1024"
   viewBox="0 0 1024 1024"
   version="1.1"
   id="svg64"
   xmlns="http://www.w3.org/2000/svg"
   xmlns:svg="http://www.w3.org/2000/svg">
  <path
     d="m 140.14877,407.64405 c -6.40135,-4.95796 -19.87627,-18.13606 -11.4443,-27.76979 9.29868,-10.62469 25.74465,-18.83046 36.86104,-27.71421 45.51379,-33.1202 93.93756,-61.20359 141.47003,-91.20264 18.38512,-11.14779 38.40472,-20.25505 56.88882,-31.10084 31.70652,-18.60351 64.00334,-36.93544 94.78173,-57.01373 13.73766,-9.83132 25.40069,-24.10199 42.72122,-27.43336 9.75217,-1.87502 18.64106,10.62163 25.12091,11.97218 20.56213,4.23629 39.16566,9.24069 59.17502,15.55058 109.39977,34.46669 220.39303,64.79227 332.43045,89.2621 18.70249,4.08445 23.09403,23.96483 13.31455,37.24832 -5.13538,6.97669 -55.55462,35.15117 -63.00696,34.27048 -25.95689,-3.06829 -20.47001,3.31703 -41.34268,17.27786 -9.91595,5.55616 -34.4329,11.96638 -46.79202,14.55628 16.4777,16.23849 29.48174,34.72635 44.39322,52.15607 7.67412,8.11429 18.23499,14.08913 26.27424,21.64382 31.02063,29.15073 65.94149,59.63906 87.9436,96.48101 7.33633,12.28748 11.91211,39.85837 18.69906,55.80374 -11.93601,-3.64426 -19.23137,-2.64447 -30.37232,-4.97164 17.13966,17.04758 45.28722,70.89951 53.15585,92.84019 36.30617,101.43902 38.83127,211.91362 40.49987,318.52899 0.1604,10.22984 1.5457,28.05884 -13.4204,27.40024 -8.33264,-0.3685 -10.44824,-8.6295 -10.82359,-15.2731 -2.52164,1.0168 -10.30494,4.7464 -12.44441,4.7873 -39.68434,0.778 -79.30726,6.8723 -118.98474,4.3233 -5.35724,-0.3412 -10.69396,-0.4367 -15.70311,-1.9449 -8.95374,4.6918 -11.13758,4.5996 -19.58967,-1.0749 -4.86926,-0.8633 -21.81443,-0.621 -27.50947,-0.6108 l -53.27527,0.1025 -143.87701,-0.01 c -26.30837,0.01 -54.58217,0.5835 -80.61755,-0.167 -3.24503,2.1121 -7.06675,4.1424 -10.47216,6.0567 -4.92384,-1.7812 -7.55811,-2.6889 -11.75855,-5.9339 l -186.83026,-0.065 c -23.42161,0 -47.54957,2.2589 -70.70841,1.2728 -20.16528,-0.8565 -25.90093,-0.016 -39.02167,-14.1813 -3.85344,6.8654 -11.36411,11.4992 -17.47235,7.0326 -8.97794,-6.5685 -5.96151,-42.12064 -5.95916,-51.9274 l -0.0848,-87.6877 C 128.67136,857.04605 64.352052,816.88399 35.451764,769.36176 2.4619047,713.51365 0.8881803,638.78565 15.551931,577.09238 26.184807,532.36134 40.452396,489.83805 71.760705,455.34373 86.894323,438.66814 85.484723,430.02491 110.651,437.20085 c 6.19628,-10.86111 19.56851,-22.10105 29.49777,-29.5568 z"
     id="path2"
     style="stroke-width:3.41223" />
  <path
     fill="#695f5a"
     d="m 811.13569,714.54075 c 2.83896,3.35765 5.43227,7.76967 10.01488,7.57855 3.5317,-2.46702 14.36555,-13.93556 17.77778,-17.57984 21.00573,-22.43887 66.05409,-67.11189 78.6862,-93.16433 3.95821,8.00511 12.20559,20.90339 17.06801,28.90848 19.46002,31.33117 25.33247,52.46657 35.69543,86.26822 20.04348,78.20165 25.26423,161.00983 25.84428,241.51477 0.0443,6.40818 1.02712,37.8144 0.45384,42.09 -2.52164,1.0168 -10.30494,4.7464 -12.44441,4.7873 -39.68434,0.778 -79.30726,6.8723 -118.98474,4.3233 -5.35724,-0.3412 -10.69396,-0.4367 -15.70311,-1.9449 -8.95374,4.6918 -11.13758,4.5996 -19.58967,-1.0749 -4.86926,-0.8633 -21.81443,-0.621 -27.50947,-0.6108 l -53.27527,0.1025 -143.87701,-0.01 c -26.30837,0.01 -54.58217,0.5835 -80.61755,-0.167 1.77096,-8.8241 1.19429,-25.75565 1.15676,-35.47368 l -0.38557,-57.44844 c 12.56045,0.0956 25.96711,-1.13968 38.25798,-1.81875 17.47752,-0.96565 15.37899,-16.9315 5.85885,-16.71994 -13.95608,0.31051 -29.77179,1.32736 -43.86774,1.98247 l 0.10252,-49.1123 c 0.0581,-10.30839 0.55275,-21.44933 -0.70976,-31.58707 2.67861,6.63676 5.75305,15.59732 13.4954,17.4604 5.35381,0.91446 12.77542,-4.54169 17.04072,-7.42163 12.47512,-8.43164 25.82723,-15.33801 38.4491,-23.43865 0.40606,8.08357 1.77779,24.05627 14.95584,20.64061 10.80998,-2.80143 27.71077,-18.37488 33.86307,-27.64935 9.03557,14.56343 17.61394,11.19214 29.21214,1.9552 23.43526,-18.72294 50.53524,-32.61416 77.96282,-44.53994 22.09766,-9.60542 48.09889,-27.12728 61.06883,-47.84981 z"
     id="path3"
     style="stroke-width:3.41223" />
  <path
     fill="#867d78"
     d="m 934.68256,640.28361 c 19.46002,31.33117 25.33247,52.46657 35.69543,86.26822 l -0.6415,2.32373 c -6.12838,6.55491 -17.01339,8.85474 -25.53034,10.66663 -25.58838,5.75987 -47.47449,-9.44847 -51.59645,-35.35759 -4.43252,-27.87798 13.13368,-59.17846 42.07286,-63.90099 z"
     id="path4"
     style="stroke-width:3.41223" />
  <path
     d="m 829.95418,1016.2474 c -2.82193,-12.3898 -3.48389,-32.83595 -4.16976,-45.98329 l -3.22458,-72.95369 c -0.78821,-19.36443 -2.61376,-38.65723 -2.40563,-58.03533 0.19451,-18.39196 22.85176,-20.26188 23.40796,-1.42291 3.94455,56.80012 4.20728,113.75038 8.78652,170.52322 0.27299,3.3952 -1.26255,6.026 -2.80484,8.9469 -8.95374,4.6918 -11.13758,4.5996 -19.58967,-1.0749 z"
     id="path5"
     style="stroke-width:3.41223" />
  <path
     d="m 580.01116,883.43286 c 20.74641,-1.44336 34.65468,15.01385 30.25634,34.46018 -3.43616,15.20836 -15.40289,19.81146 -29.02452,16.14331 -5.47326,-2.77756 -7.26466,-3.99915 -6.51737,-10.62912 1.38877,-12.33866 20.59284,2.8458 20.17997,-12.78562 -0.40264,-15.2425 -17.27274,-6.17618 -24.51695,-12.48539 -3.53846,-8.76946 2.71957,-11.87801 9.62253,-14.70336 z"
     id="path6"
     style="stroke-width:3.41223" />
  <path
     fill="#695f5a"
     d="m 49.738803,543.39992 0.866366,0.35149 c 11.468192,4.57579 25.928572,7.55809 37.739344,11.91895 35.338167,13.04838 66.661137,25.60542 96.993547,48.28659 0.54973,44.75489 7.37728,75.08968 43.36409,104.62944 27.49104,22.56853 56.07535,32.12962 84.76544,51.20745 21.44254,14.25635 24.23031,9.40413 28.0179,-14.16421 14.5225,19.13927 34.53524,33.14991 51.0778,50.50453 10.32539,10.83728 24.55786,55.51371 42.31175,28.24995 -0.01,-5.28898 0.0616,-10.73152 -0.23546,-16 19.01298,27.00102 24.71142,11.96332 38.6197,-8.21324 6.08063,15.79523 7.0224,44.07244 28.20215,38.15221 l -0.0956,68.69519 c -10.09001,-0.11942 -58.19232,-5.39818 -46.53953,13.98336 2.62741,4.37105 39.37383,2.57963 46.5702,2.78779 -0.0443,12.59116 -1.05095,84.52458 1.04759,91.89498 l -186.83026,-0.065 c -23.42161,0 -47.54957,2.2589 -70.70841,1.2728 -20.16528,-0.8565 -25.90093,-0.016 -39.02167,-14.1813 2.11525,-7.91297 -0.27296,-76.02124 0.43712,-89.19931 0.635,-11.78589 0.37636,-34.75365 0.80666,-47.4813 0.14243,-4.20388 -1.36491,-10.80654 -5.28079,-13.17123 -8.81039,-5.32312 -22.46448,-8.01533 -32.66227,-11.86094 C 139.80931,829.9152 115.43775,817.41618 92.050273,796.50256 76.484317,784.3209 62.773607,770.79819 53.879947,752.959 28.123352,712.51373 26.119004,637.72091 36.744712,591.70005 40.398537,575.8775 45.182494,559.0586 49.738858,543.39981 Z"
     id="path7"
     style="stroke-width:3.41223" />
  <path
     fill="#867d78"
     d="m 53.879894,752.95912 c 3.586603,-4.19706 5.287602,-8.94688 8.309138,-13.46127 7.359176,-11.07952 23.094716,-12.70034 35.093157,-14.94562 22.371321,-4.18681 41.355311,17.23182 43.659591,37.72231 1.92962,17.15672 -11.87151,33.09188 -28.74435,34.7195 -5.73393,0.55281 -16.405023,-2.18379 -20.147212,-0.49134 C 76.484264,784.32101 62.773551,770.7983 53.879894,752.95912 Z"
     id="path8"
     style="stroke-width:3.41223" />
  <path
     fill="#867d78"
     d="m 284.96177,861.33521 c 18.27933,-0.65516 31.09572,9.43825 35.47703,27.10339 5.95437,24.01194 1.35807,45.62504 -24.88205,52.60308 -46.14028,8.13818 -55.64027,-71.17928 -10.59498,-79.70647 z"
     id="path9"
     style="stroke-width:3.41223" />
  <path
     d="m 436.58798,888.66042 c 7.18276,0.61418 19.80804,4.97163 16.80184,14.18466 -4.11515,4.3438 -11.59821,2.98228 -17.88354,4.81467 -1.9006,2.69909 -2.49772,11.06247 -0.56642,12.92898 7.39089,7.14523 21.73596,-1.07487 15.36871,17.12941 -36.57577,14.07552 -45.65575,-42.20937 -13.72059,-49.05772 z"
     id="path10"
     style="stroke-width:3.41223" />
  <path
     fill="#ffffff"
     d="m 682.01318,391.85907 c 23.52737,-5.28559 46.41667,-13.1815 70.07371,-17.20453 5.09107,-0.86534 12.65602,15.30732 14.92513,18.91747 29.58411,47.09911 51.46338,101.08071 57.19594,156.61829 -11.88139,-14.96609 -20.35742,-9.05268 -25.98078,7.26806 -2.96183,8.59885 -12.94946,31.74407 -22.05671,33.96202 -3.36445,-2.72981 -7.69458,-19.32352 -19.84558,-5.50394 -7.90615,8.99467 -14.55659,24.00167 -23.78672,31.83957 -26.58133,22.06013 -65.1635,50.89697 -99.5964,56.56468 -33.04068,5.43909 -60.52284,-3.79781 -86.24771,-22.49348 -29.52951,-21.46296 -12.37277,-48.44011 -53.51752,-40.74211 -16.67902,3.11877 -35.61353,-12.9051 -35.25527,19.58283 -11.46851,19.44295 -30.31772,34.49772 -51.88648,41.24712 -6.27511,2.06784 -12.17828,0.70634 -18.4022,0.52891 -26.80655,-0.76435 -51.05048,-11.11708 -74.41749,-23.47278 -14.47814,-7.65366 -17.43313,-32.36167 -36.7771,-18.29985 -15.06845,-24.90248 -43.25354,-63.01038 -45.64176,-90.89858 -3.02904,-35.36786 28.99343,-84.9272 49.22462,-110.68278 28.71737,4.30966 41.95684,2.9516 68.6235,4.13562 5.29581,35.33035 33.75387,51.17335 67.54867,46.14713 22.02257,-3.27232 43.61865,-20.00938 55.07694,-38.74597 1.1465,-4.99551 4.73616,-8.76603 9.28468,-10.79973 2.67863,-1.66518 3.93771,-1.10899 7.49328,-1.21478 l 1.38879,-1.71292 c 5.76325,-2.54553 15.75086,-3.73982 21.83831,-1.69587 1.83236,0.23541 3.27234,0.63809 4.96483,-0.006 l 0.62782,0.40606 c 6.72554,4.42907 3.20752,7.6127 11.94625,14.82958 25.88524,21.92021 55.99141,34.25545 89.00823,40.97073 5.62336,1.14654 21.61653,4.80106 26.75196,3.19728 34.12578,-10.65982 65.31364,-63.19464 37.43906,-92.74122 z"
     id="path11"
     style="stroke-width:3.41223" />
  <path
     fill="#282a2b"
     d="m 480.55465,429.82702 c 2.67863,-1.66518 3.93771,-1.10899 7.49328,-1.21478 -2.47046,5.27534 -9.83748,11.36958 -13.82979,16.96566 -1.1977,1.64811 -0.76436,1.59353 -2.34082,2.12583 0.3003,-2.89699 0.86331,-4.67817 -0.60735,-7.07698 1.1465,-4.99551 4.73616,-8.76603 9.28468,-10.79973 z"
     id="path12"
     style="stroke-width:3.41223" />
  <path
     fill="#695f5a"
     d="m 480.55465,429.82702 c -2.86968,4.44614 -8.20984,10.59501 -6.33651,15.75088 -1.1977,1.64811 -0.76436,1.59353 -2.34082,2.12583 0.3003,-2.89699 0.86331,-4.67817 -0.60735,-7.07698 1.1465,-4.99551 4.73616,-8.76603 9.28468,-10.79973 z"
     id="path13"
     style="stroke-width:3.41223" />
  <path
     fill="#282a2b"
     d="m 511.27503,425.20345 c 1.83236,0.23541 3.27234,0.63809 4.96483,-0.006 -0.59375,5.09106 -1.36833,10.17186 -2.10535,15.24245 -1.20794,-5.0501 -1.9996,-10.11727 -2.85948,-15.23562 z"
     id="path14"
     style="stroke-width:3.41223" />
  <path
     fill="#eaeaea"
     d="m 541.43239,482.29017 -2.94134,-2.99935 0.21496,-0.7507 c 12.9358,1.26935 40.71142,17.77775 51.95477,25.0663 5.20363,4.0162 6.69819,13.6012 2.33736,17.69929 -2.11219,-0.0716 -1.60715,0.23884 -3.15973,-0.78142 -1.3308,5.44595 -8.96395,9.04584 -12.53316,12.52633 2.74343,2.64108 2.29985,5.42888 0.98272,8.83768 -1.40926,1.15676 -1.43995,1.27961 -3.19725,1.99617 l -1.79824,0.73363 -1.40928,-2.79461 c -2.78097,-1.64471 -5.92021,-0.71318 -10.56089,-1.99958 l -0.79504,-0.22519 c -9.03217,-0.17056 -31.50519,2.55577 -38.07034,0.98952 l -6.1113,-0.2013 2.2418,-1.52527 c 1.38883,-2.92088 1.24891,-1.7027 0.7985,-4.65088 -3.12904,-4.79761 -17.87329,-7.67754 -25.78629,-12.14755 l -2.7878,-1.38538 c 6.28878,-3.25187 14.57027,-4.50077 21.36403,-6.72211 4.82148,-1.57305 34.85943,-13.2156 36.82486,-15.43699 1.2489,-2.68542 2.49437,-3.92406 4.39157,-6.12493 l -0.15708,-1.18407 c -3.3679,-1.91769 -11.05907,-5.4937 -11.80293,-8.91959 z"
     id="path15"
     style="stroke-width:3.41223" />
  <path
     d="m 541.43239,482.29017 -2.94134,-2.99935 0.21496,-0.7507 c 12.9358,1.26935 40.71142,17.77775 51.95477,25.0663 5.20363,4.0162 6.69819,13.6012 2.33736,17.69929 -2.11219,-0.0716 -1.60715,0.23884 -3.15973,-0.78142 -7.97442,-8.25079 -14.36552,-6.60609 -19.63744,-20.1015 -1.08849,-2.78096 -25.6805,-17.51498 -28.76858,-18.13262 z"
     id="path16"
     style="stroke-width:3.41223" />
  <path
     fill="#282a2b"
     d="m 577.30525,533.05062 c 2.74343,2.64108 2.29985,5.42888 0.98272,8.83768 -1.40926,1.15676 -1.43995,1.27961 -3.19725,1.99617 l -1.79824,0.73363 -1.40928,-2.79461 c -2.78097,-1.64471 -5.92021,-0.71318 -10.56089,-1.99958 l -0.79504,-0.22519 c 12.63213,0.68925 6.84837,-1.55599 15.95903,-6.14547 z"
     id="path18"
     style="stroke-width:3.41223" />
  <path
     fill="#695f5a"
     d="m 571.84908,546.09559 c 1.8392,8.42825 5.05692,3.47369 7.73555,8.95714 0.051,3.07443 -0.0752,3.84219 -0.62444,6.84154 -1.22841,-0.55277 -1.52527,-0.72339 -2.8697,-0.94861 l -0.9179,-0.14324 -1.0032,-2.33055 c -3.37128,-3.44636 -4.31989,-4.30964 -8.3395,-6.90638 2.28279,0.51183 2.43295,0.61081 4.68159,0.18427 0.37192,-2.29644 0.65514,-3.4293 1.3376,-5.6541 z"
     id="path23"
     style="stroke-width:3.41223" />
  <path
     d="m 447.3911,485.04386 c 10.73149,-13.37939 8.78312,-14.15738 15.92833,-26.82359 0.42655,9.36319 1.18407,14.28358 -5.68477,21.74617 -4.04351,4.39498 -15.01382,12.14414 -11.08638,19.24844 19.08467,-3.70228 29.20194,3.18364 44.91871,2.84579 17.69929,-0.38216 39.69457,-2.14971 57.53374,-3.54191 -1.96543,2.22139 -32.00338,13.86394 -36.82486,15.43699 -6.79376,2.22134 -15.07525,3.47024 -21.36403,6.72211 -8.10405,-2.10878 -13.94241,-2.37493 -21.21728,-6.75623 -4.6475,-2.79804 -7.11454,-10.63254 -11.10003,-11.42417 -9.56107,-1.90404 -8.81721,10.7383 -17.52184,14.48154 l -0.75413,0.31732 c -1.31369,-2.44658 -1.15674,-5.07739 -1.24202,-7.85497 l 1.1226,-5.61653 c 1.79828,-8.30883 2.51143,-11.47537 7.29196,-18.78096 z"
     id="path25"
     style="stroke-width:3.41223" />
  <path
     d="m 522.45693,540.58824 c 6.56515,1.56625 29.03817,-1.16015 38.07034,-0.98952 l 0.79504,0.22519 c 4.64068,1.2864 7.77992,0.35487 10.56089,1.99958 l 1.40928,2.79461 -1.4434,1.47749 c -0.68246,2.22481 -0.96568,3.35766 -1.3376,5.6541 -2.24864,0.42655 -2.3988,0.32757 -4.68159,-0.18426 -4.99893,-2.31693 -18.98571,-0.77798 -24.82061,-0.3856 -7.76625,0.65175 -20.36084,0.22524 -28.41029,0.53914 -16.44357,0.6415 -25.65322,1.86991 -41.40067,5.81788 -11.03863,-6.59586 -18.56261,-3.94797 -23.28515,-15.9249 19.74665,-2.38174 32.55958,-0.65859 52.12878,0.96907 3.12902,0.25932 10.69054,-2.10535 16.30368,-2.19408 z"
     id="path26"
     style="stroke-width:3.41223" />
  <defs
     id="defs28" />
  <path
     fill="#eaeaea"
     d="m 614.06528,504.42879 c 0.003,11.04198 0.13986,12.70717 -3.65793,23.55807 -0.85304,2.43292 -1.48771,3.36106 -0.76431,5.52102 l 4.37448,2.91062 0.21498,1.53549 c -5.95436,4.91708 -6.94733,-2.31689 -11.81318,7.5752 -1.84944,-2.13265 -3.07784,-3.96164 -5.61653,-5.10813 l -1.63106,0.13648 c -2.85605,-2.54893 -3.44637,-5.02623 -4.88632,-8.58861 1.33418,-0.47771 3.41222,-2.16337 4.63041,-3.06078 2.3476,-1.85964 4.05031,-3.97523 6.01916,-6.2273 6.79719,-7.85158 10.19238,-8.11775 13.1303,-18.25208 z"
     id="path29"
     style="stroke-width:3.41223" />
  <path
     d="m 542.13875,565.67503 c 3.67836,-0.56642 11.70395,-2.26914 14.79544,-2.39537 -5.78374,3.98889 -7.92664,5.50051 -14.88758,7.30901 -25.49285,7.12475 -20.33012,9.69073 -40.14502,24.00511 -12.7788,-1.03736 -21.09785,-2.87315 -33.07139,-4.1425 -2.89016,-5.35719 -8.09041,-13.3589 -9.85455,-18.60012 l 0.99639,-0.72339 c 33.08165,12.73448 52.5314,1.47411 82.16671,-5.45274 z"
     id="path32"
     style="stroke-width:3.41223" />
  <path
     fill="#f65d3d"
     d="m 355.85101,494.31829 c 3.47706,0.29688 3.22797,-0.2286 5.78714,1.54235 0.36172,5.0467 -7.91298,12.11686 -11.22282,16.19107 -3.27236,4.01961 -5.56537,7.40798 -8.35318,11.78246 -3.44634,0.14677 -4.27212,-0.19792 -6.51395,-2.55236 -2.21798,-7.85155 14.03113,-23.10768 20.30281,-26.96352 z"
     id="path38"
     style="stroke-width:3.41223" />
  <path
     fill="#f65d3d"
     d="m 683.67153,492.37675 c 1.70271,0.0581 2.84582,0.28319 4.50075,0.56301 l 1.04755,1.61058 c 0.66878,7.07358 -6.46618,19.55213 -9.96373,26.05927 l -2.81851,-0.97931 c -6.60269,-6.76307 2.51482,-21.33332 7.23394,-27.25355 z"
     id="path40"
     style="stroke-width:3.41223" />
  <path
     fill="#f65d3d"
     d="m 660.2977,495.12701 c 3.46683,-0.34124 4.55192,-0.54593 7.1077,1.61741 1.45701,4.41885 -5.66773,15.65875 -8.24738,21.13198 -4.07081,0.70976 -5.18319,1.35467 -7.28172,-2.55235 -0.38559,-6.69823 4.45297,-15.06504 8.4214,-20.19704 z"
     id="path41"
     style="stroke-width:3.41223" />
  <path
     fill="#f65d3d"
     d="m 379.8834,497.55993 2.8902,0.54257 c 3.04709,5.72232 -9.21648,19.07097 -13.52614,22.84834 -1.29325,-0.32076 -1.9518,-1.07145 -2.97207,-1.94499 -3.43273,-8.31903 6.56174,-18.27252 13.60801,-21.44592 z"
     id="path42"
     style="stroke-width:3.41223" />
  <path
     fill="#f65d3d"
     d="m 641.02539,496.56355 3.25528,1.10899 c 4.36423,5.08422 -2.27257,18.80486 -6.26147,22.8893 -11.62892,-2.74003 -2.23844,-19.42587 3.00619,-23.99829 z"
     id="path43"
     style="stroke-width:3.41223" />
  <path
     fill="#f65d3d"
     d="m 393.02392,502.52131 c 10.6496,2.12243 5.29581,10.47217 1.01686,16.33441 -3.19386,-0.97932 -4.54169,-1.87672 -5.98167,-4.90681 -0.5596,-5.13882 1.86992,-7.41822 4.96481,-11.4276 z"
     id="path44"
     style="stroke-width:3.41223" />
  <path
     fill="#a9885d"
     d="m 351.16258,261.7337 c 3.58969,-2.53428 8.50331,-5.77556 12.87099,-6.39215 13.8878,4.00494 24.75575,7.21075 39.43522,6.95108 -13.16441,10.34182 -24.90935,23.38816 -36.95112,35.05356 -15.43355,14.9531 -75.46848,69.28071 -76.90843,87.67439 -0.0956,1.20827 0.23544,2.99971 1.1158,3.89028 1.82214,1.83922 3.27915,2.37491 5.86564,2.29644 10.88161,-0.33099 37.84853,-21.98504 45.1166,-30.4607 0.55281,-0.64219 1.01343,-1.37036 1.43995,-2.0992 l -0.26615,-1.66996 c -1.21817,-0.60738 -1.9552,-1.33318 -3.27915,-0.534 -16.33437,9.85588 -26.10022,24.17773 -45.21217,29.71718 13.54659,-27.93124 58.57792,-66.84509 81.25905,-89.32729 8.19959,-8.12691 27.17167,-27.54083 35.39857,-32.98405 26.79289,1.98864 65.90395,1.74468 92.11677,-1.85624 2.82533,23.36596 5.51076,46.94486 8.48964,70.27808 2.99255,23.44549 8.14158,47.83995 8.84454,71.52052 -5.67798,0.50161 -42.42779,4.14587 -46.46105,3.50096 -0.91789,-2.35785 -0.50842,-7.34657 -1.11579,-9.25742 -1.84604,-5.82468 -3.9548,-36.04345 -6.299,-38.32861 -8.29515,1.66717 -28.30451,39.78565 -22.79373,44.54573 4.73959,-1.67882 15.5632,-28.72901 19.46339,-35.26343 0.2252,9.20145 1.97908,20.74434 3.59309,29.99835 0.51865,2.97886 5.57557,4.56897 4.57239,8.98439 -10.15825,1.00662 -23.36356,0.62105 -33.69242,0.25592 -5.37087,-0.19107 -15.36192,-2.22817 -20.19022,-2.00296 -18.43974,0.86671 -37.30261,1.21816 -55.64337,1.82895 5.87589,-7.72871 46.9012,-80.25548 46.64869,-84.19936 -0.051,-0.82301 -0.31734,-1.64061 -0.58008,-2.41687 -4.91019,0.0443 -10.76218,12.27926 -13.04156,16.43777 -12.93579,23.60959 -24.59881,47.80612 -39.32603,70.39002 -37.66771,0.26958 -89.45866,-7.54786 -128.03502,-10.9567 9.0926,-9.40072 19.50878,-20.30759 28.88903,-29.2555 10.97035,-10.46498 57.28806,-50.54001 57.68385,-61.77207 l -1.26933,-1.08306 c -4.33014,0.64697 -13.39985,12.6601 -16.77455,16.43676 -21.06718,23.57821 -46.63507,42.37283 -67.33405,66.44718 -2.16984,2.52505 -5.02111,5.48689 -7.43628,7.73554 -21.76257,-2.27255 -41.76989,-6.87223 -62.53577,-13.65099 8.37672,-4.62768 17.36149,-11.10308 25.24922,-16.65889 35.36785,-24.91139 71.70373,-48.21184 108.84254,-70.3873 11.39687,-6.80469 27.27059,-17.96031 39.2032,-23.0715 6.46619,-3.8067 12.36252,-6.89477 19.0471,-10.31485 z"
     id="path47"
     style="stroke-width:3.41223" />
  <path
     fill="#e6b77b"
     d="m 351.16258,261.7337 c 6.79378,3.79643 8.58521,4.51509 13.05863,10.95909 -5.10811,13.43224 -10.25036,18.47759 -23.87201,23.75394 -16.45038,-9.31709 -8.39752,-11.16246 -8.23372,-24.39818 6.46619,-3.8067 12.36252,-6.89477 19.0471,-10.31485 z"
     id="path48"
     style="stroke-width:3.41223" />
  <path
     fill="#e6b77b"
     d="m 445.88291,289.72805 c 4.21753,0.79028 12.24993,2.22646 13.95946,6.42693 6.37065,15.64954 -9.0629,57.89544 -22.92341,64.90998 l -0.81212,0.055 c -27.65959,1.73887 -8.29516,-40.8619 -2.94133,-52.5116 3.4361,-7.48098 7.27147,-12.91023 12.7174,-18.88025 z"
     id="path49"
     style="stroke-width:3.41223" />
  <path
     fill="#e6b77b"
     d="m 453.66623,266.11841 c 5.31285,-0.43402 10.35614,-1.61158 14.56682,2.29407 7.27149,6.74224 2.10876,13.72059 -2.87649,19.31462 -5.55854,1.55361 -13.77182,0.33985 -15.41309,-6.18709 -1.672,-6.64806 0.42996,-9.91253 3.72276,-15.4216 z"
     id="path50"
     style="stroke-width:3.41223" />
  <path
     d="m 425.28662,284.98502 c 0.76776,0.22316 1.98592,0.81246 2.76052,1.153 l 0.55277,1.76343 c -0.99977,7.02343 -9.87502,21.70285 -14.60435,26.83454 -1.05096,-0.65584 -1.56282,-1.52221 -2.31009,-2.51924 -0.73705,-4.91431 10.36977,-21.82061 13.60115,-27.23173 z"
     id="path51"
     style="stroke-width:3.41223" />
  <path
     fill="#a9885d"
     d="m 605.05356,229.12772 c 3.97528,0.89876 34.72638,14.86881 41.45871,17.74942 l 82.14962,34.68438 c 15.08209,6.41739 31.82253,14.40715 46.96944,19.994 4.34039,20.1387 17.20451,25.91664 34.82872,33.40106 -18.34077,4.28475 -46.56339,13.64348 -66.19742,19.00719 -24.41456,6.24095 -49.09525,12.67441 -73.79986,17.5546 -29.75812,-12.61029 -55.63314,-48.49407 -76.70371,-72.6858 -13.45788,-15.45302 -28.1885,-33.29286 -39.63996,-50.13398 17.47066,-4.58159 34.12579,-12.88528 50.93446,-19.57087 z"
     id="path52"
     style="stroke-width:3.41223" />
  <path
     fill="#ffffff"
     d="m 100.30134,459.23026 c 34.30016,6.67434 87.54507,30.20855 112.48714,55.55808 -15.439,25.60542 -22.40576,47.76792 -26.38205,77.35203 -2.94236,-2.6752 -8.65717,-6.17957 -12.1445,-8.4692 -40.88099,-24.15864 -76.863714,-36.56553 -121.75,-49.52865 12.853215,-29.00401 23.620533,-52.38806 47.78941,-74.91226 z"
     id="path53"
     style="stroke-width:3.41223" />
  <path
     fill="#a9885d"
     d="m 546.56439,251.40381 c 0.35487,-0.0533 1.84261,0.0512 2.14291,0.19861 1.33761,0.65652 12.63891,17.02876 14.97629,19.99026 14.64191,18.56325 76.64911,95.48293 95.14344,101.70856 0.20813,0.0697 0.4197,0.12425 0.62783,0.18633 l 0.38902,1.02538 c -17.21473,4.05202 -34.44996,7.6584 -51.62376,11.9104 -5.0501,-8.11431 -13.06545,-18.0173 -19.18018,-25.29833 -2.839,-3.50641 -14.15397,-19.67874 -18.6274,-16.58895 -1.76413,8.30232 -1.8324,16.48898 -2.53191,24.92982 -0.76093,9.25296 -2.09849,17.6126 -3.70907,26.7335 -11.72446,2.55578 -25.50992,3.93773 -37.81445,6.4389 0.0206,-0.38216 0.0375,-0.76431 0.0547,-1.1465 -3.47708,-46.28735 -13.53978,-95.20757 -16.89057,-141.28405 9.52352,-1.01413 27.32519,-6.15738 37.04322,-8.80393 z"
     id="path54"
     style="stroke-width:3.41223" />
  <path
     fill="#a9885d"
     d="m 632.02732,209.45891 c 12.55361,4.40996 28.50582,8.53739 41.49282,12.09294 33.79478,9.86445 66.85596,19.51426 100.89645,28.43624 l 9.81017,2.3797 c 5.60292,1.40172 13.8264,3.19248 19.14264,4.8597 25.43826,5.80899 48.95199,11.85789 74.08652,18.84272 11.60162,3.22355 26.38686,4.81092 39.20321,8.20098 -13.3111,11.07953 -30.28703,15.9986 -45.18143,28.02846 -5.34015,-7.98361 -10.00126,-9.44679 -19.57603,-9.13013 -31.02404,1.02641 -34.48065,-0.64628 -32.18764,30.12018 -8.69438,-3.61461 -30.66238,-13.95877 -34.86622,-22.56035 -1.23525,-2.52779 1.13625,-7.69563 2.16676,-10.44144 -7.42163,-3.0294 -14.96266,-6.13625 -22.25801,-9.46217 -50.22814,-22.90735 -102.00204,-42.68778 -152.36669,-65.18638 5.65069,-5.24526 13.5125,-11.24672 19.63745,-16.18045 z"
     id="path55"
     style="stroke-width:3.41223" />
  <path
     fill="#e6b77b"
     d="m 673.52014,221.55185 c 33.79478,9.86445 66.85596,19.51426 100.89645,28.43624 -6.65044,10.264 -12.3557,10.18418 -23.87201,11.11368 -18.1224,1.46248 -80.9929,-11.49212 -80.38551,-35.92644 1.52868,-3.10687 0.59372,-2.22957 3.36107,-3.62348 z"
     id="path56"
     style="stroke-width:3.41223" />
  <path
     fill="#e6b77b"
     d="m 784.22676,252.36779 c 5.60292,1.40172 13.8264,3.19248 19.14264,4.8597 0.69272,6.26112 0.70297,11.62414 -5.64381,15.34892 -5.50736,3.23037 -12.02472,0.26958 -14.66922,-5.20843 -2.66496,-5.52681 -0.75752,-9.63547 1.17039,-15.00019 z"
     id="path57"
     style="stroke-width:3.41223" />
  <path
     fill="#a9885d"
     d="m 501.0315,167.56958 c 3.94454,0.22896 11.64597,7.89728 16.09552,9.26421 13.47834,4.14212 28.74129,6.97189 42.55743,9.61466 -7.37043,3.42693 -11.70055,6.13863 -19.6579,9.16766 -13.55683,-4.33796 -10.39368,-6.46856 -20.45979,-11.68484 -1.89377,0.62308 -1.31712,0.0311 -2.06439,1.50548 -0.29003,8.1996 10.60184,11.46577 16.76089,13.46978 -6.6675,1.84499 -27.39002,9.76207 -31.84638,8.22008 -0.82237,-1.64195 -1.20454,-2.9666 -2.77758,-3.78961 l -1.72317,0.9834 c -0.82918,2.48718 -0.87014,3.17681 -2.57965,5.0501 -5.46641,2.52097 -23.89934,5.10812 -29.34527,4.1933 l -0.01,-1.19565 3.12558,-2.71782 c 6.41843,-6.2468 26.19236,-24.2641 28.38301,-32.14567 l -0.86329,-0.81758 c -6.97461,0.90662 -9.43145,6.49279 -13.92877,10.97341 -8.18934,8.15558 -16.86326,19.02937 -26.11384,25.72589 l -0.6995,0.49852 c -7.70143,0.11797 -12.38303,-0.49784 -20.08105,-1.4727 15.10598,-8.19211 35.28939,-20.14213 48.12621,-31.50726 6.415,-5.67864 9.79654,-8.68416 17.10213,-13.33536 z"
     id="path58"
     style="stroke-width:3.41223" />
  <path
     fill="#a9885d"
     d="m 546.05599,205.16527 c 5.51758,0.47327 38.09762,14.70778 47.49835,17.65492 -13.63189,4.34583 -29.56365,11.99811 -45.60797,17.17176 l -0.65517,-0.94283 c -4.25506,-6.11367 -12.8027,-20.78733 -19.70909,-22.02702 -0.26274,8.89982 9.39391,18.36674 15.29708,24.89467 l -35.10512,8.34224 c -0.74388,-9.15025 -3.06418,-22.32558 -4.25166,-31.84915 13.88784,-2.2756 29.15418,-8.44664 42.53358,-13.24459 z"
     id="path59"
     style="stroke-width:3.41223" />
  <path
     fill="#ffffff"
     d="m 175.77561,419.84964 c 18.999,2.6172 41.8255,8.9537 62.26313,12.0213 -7.06267,12.72083 -13.27671,21.70867 -21.58481,33.53888 -3.36549,5.43573 -5.00781,8.85818 -7.68775,14.64874 -6.28572,-3.97867 -12.66148,-7.83108 -19.01542,-11.69714 1.89038,-2.49776 3.46343,-5.25827 5.08219,-7.94711 l -0.39819,-1.94157 c -3.12868,-14.71697 -10.73728,-20.5519 -22.90671,-28.43077 1.52594,-3.24503 2.90007,-6.84837 4.24756,-10.19233 z"
     id="path60"
     style="stroke-width:3.41223" />
  <path
     fill="#a9885d"
     d="m 495.02256,220.82131 1.91082,0.0164 c 2.14633,3.13752 4.19025,25.07108 5.08082,30.85208 -27.35931,3.51596 -46.22217,3.44056 -73.38698,2.66941 -2.73322,-0.0858 -4.60312,0.4156 -6.15567,-1.15404 4.99551,-5.48924 25.40409,-23.14555 31.40965,-27.96772 14.51223,-0.80527 26.84407,-1.89859 41.14136,-4.4168 z"
     id="path61"
     style="stroke-width:3.41223" />
  <path
     fill="#a9885d"
     d="m 426.5048,217.93762 c 1.25572,0.0624 14.30072,5.80661 20.30965,6.62928 -11.18533,7.6557 -25.59181,23.52635 -35.3815,28.55804 -5.01599,-0.15354 -11.33546,-1.01241 -16.41969,-1.56143 -7.30559,-1.10078 -14.7784,-1.83679 -22.13518,-2.63696 16.25929,-8.47022 37.08078,-21.50395 53.62672,-30.98893 z"
     id="path62"
     style="stroke-width:3.41223" />
  <path
     fill="#a9885d"
     d="m 571.80473,191.50676 c 3.82851,0.36954 40.45206,12.46218 48.86664,14.5805 -7.7253,4.67066 -11.60159,7.69834 -20.00593,11.55725 -4.88631,1.36967 -9.36319,-1.20349 -13.83324,-3.14404 -11.2433,-4.87814 -22.57534,-9.3294 -34.01318,-13.71993 5.50394,-2.26539 13.46811,-6.52762 18.98571,-9.27378 z"
     id="path63"
     style="stroke-width:3.41223" />
  <path
     fill="#a9885d"
     d="m 574.89279,353.93747 c 3.00959,1.10455 24.38386,29.60049 27.62889,33.99068 l -10.49601,2.2282 c -7.29198,1.27957 -14.28022,2.54894 -21.52443,4.08444 2.91747,-13.08387 4.0401,-26.9345 4.39155,-40.30332 z"
     id="path64"
     style="stroke-width:3.41223" />
</svg>
